# xmcd
#
# Track frame offsets:
#   150
#   17614
#   34507
#   52413
#   69668
#   84649
#   102620
#   120948
#   141493
#   156249
#   177367
#   197970
#   217091
#   236320
#   249445
#   264829
#   284871
#   300766
#   317658
#   330658
#
# Disc length: 4582 seconds
#
# Revision: 2
# Processed by: cddbd v1.5.1PL0 Copyright (c) Steve Scherf et al.
# Submitted via: uFREEDB 1.6.2
#
DISCID=2611e414
DTITLE=Promo Only - 03.05 Urban Club - Disc B
DYEAR=2005
DGENRE=Hip Hop/R&B
TTITLE0=Mike Jones - Still Tippin (Instrumental)
TTITLE1=Do Or Die feat. R. Kelly - Magic Chick (Acapella)
TTITLE2=Do Or Die feat. R. Kelly - Magic Chick (Instrumental)
TTITLE3=2 Pac - Ghetto Gospel (Instrumental)
TTITLE4=Lil Mo feat. Miri Ben Ari - Yeah Yeah Yeah (Instrumental)
TTITLE5=Lil Mo feat. Miri Ben Ari - Yeah Yeah Yeah (Acapella)
TTITLE6=Corey Gunz - Shake (Acapella)
TTITLE7=Corey Gunz - Shake (Instrumental)
TTITLE8=112 - U Already Know (Instrumental)
TTITLE9=Cassidy - I'm A Hustla (Hustla's Anthem) (Acapella)
TTITLE10=Cassidy - I'm A Hustla (Hustla's Anthem) (Instrumental)
TTITLE11=Ebony Eyes - In Ya Face (Acapella)
TTITLE12=Ebony Eyes - In Ya Face (Instrumental)
TTITLE13=50 Cent - Candy Shop (Acapella)
TTITLE14=50 Cent - Candy Shop (Instrumental)
TTITLE15=Ja Rule feat. Lloyd - Caught Up (Instrumental)
TTITLE16=Jackie-O feat. Jazze Pha - Break You Off (Acapella)
TTITLE17=Jackie-O feat. Jazze Pha - Break You Off (Instrumental)
TTITLE18=Beanie Man feat. Vybz Kantrel - The Specialists (Acapella)
TTITLE19=Beanie Man feat. Vybz Kantrel - The Specialists (Instrumental)
EXTD=
EXTT0=
EXTT1=
EXTT2=
EXTT3=
EXTT4=
EXTT5=
EXTT6=
EXTT7=
EXTT8=
EXTT9=
EXTT10=
EXTT11=
EXTT12=
EXTT13=
EXTT14=
EXTT15=
EXTT16=
EXTT17=
EXTT18=
EXTT19=
PLAYORDER=
